<mxfile host="app.diagrams.net" modified="2022-05-30T22:49:23.797Z" agent="5.0 (Windows NT 10.0; Win64; x64) AppleWebKit/537.36 (KHTML, like Gecko) Chrome/102.0.5005.61 Safari/537.36" etag="So-IM_hJMlQ3zienPWxh" version="18.1.3" type="github">
  <diagram id="C5RBs43oDa-KdzZeNtuy" name="Page-1">
    <mxGraphModel dx="1060" dy="563" grid="1" gridSize="10" guides="1" tooltips="1" connect="1" arrows="1" fold="1" page="1" pageScale="1" pageWidth="827" pageHeight="1169" math="0" shadow="0">
      <root>
        <mxCell id="WIyWlLk6GJQsqaUBKTNV-0" />
        <mxCell id="WIyWlLk6GJQsqaUBKTNV-1" parent="WIyWlLk6GJQsqaUBKTNV-0" />
        <mxCell id="BfKTVqbURA2rW4PKzyzV-0" value="Students" style="rounded=0;whiteSpace=wrap;html=1;fontStyle=1" vertex="1" parent="WIyWlLk6GJQsqaUBKTNV-1">
          <mxGeometry x="40" y="25" width="110" height="50" as="geometry" />
        </mxCell>
        <mxCell id="BfKTVqbURA2rW4PKzyzV-3" value="&lt;b&gt;Mess Secretary&lt;/b&gt;" style="rounded=0;whiteSpace=wrap;html=1;" vertex="1" parent="WIyWlLk6GJQsqaUBKTNV-1">
          <mxGeometry x="270" y="25" width="110" height="50" as="geometry" />
        </mxCell>
        <mxCell id="BfKTVqbURA2rW4PKzyzV-4" value="&lt;b&gt;Chief Warden&lt;/b&gt;" style="rounded=0;whiteSpace=wrap;html=1;" vertex="1" parent="WIyWlLk6GJQsqaUBKTNV-1">
          <mxGeometry x="500" y="25" width="110" height="50" as="geometry" />
        </mxCell>
        <mxCell id="BfKTVqbURA2rW4PKzyzV-5" value="1. Billing System" style="ellipse;whiteSpace=wrap;html=1;aspect=fixed;" vertex="1" parent="WIyWlLk6GJQsqaUBKTNV-1">
          <mxGeometry x="240" y="160" width="90" height="90" as="geometry" />
        </mxCell>
        <mxCell id="BfKTVqbURA2rW4PKzyzV-6" value="" style="endArrow=classic;html=1;rounded=0;exitX=0.5;exitY=1;exitDx=0;exitDy=0;" edge="1" parent="WIyWlLk6GJQsqaUBKTNV-1" source="BfKTVqbURA2rW4PKzyzV-0">
          <mxGeometry width="50" height="50" relative="1" as="geometry">
            <mxPoint x="390" y="270" as="sourcePoint" />
            <mxPoint x="240" y="200" as="targetPoint" />
            <Array as="points">
              <mxPoint x="95" y="200" />
            </Array>
          </mxGeometry>
        </mxCell>
        <mxCell id="BfKTVqbURA2rW4PKzyzV-8" value="" style="endArrow=classic;html=1;rounded=0;entryX=0.75;entryY=1;entryDx=0;entryDy=0;exitX=0;exitY=0;exitDx=0;exitDy=0;" edge="1" parent="WIyWlLk6GJQsqaUBKTNV-1" source="BfKTVqbURA2rW4PKzyzV-5" target="BfKTVqbURA2rW4PKzyzV-0">
          <mxGeometry width="50" height="50" relative="1" as="geometry">
            <mxPoint x="230" y="170" as="sourcePoint" />
            <mxPoint x="440" y="210" as="targetPoint" />
            <Array as="points">
              <mxPoint x="123" y="173" />
            </Array>
          </mxGeometry>
        </mxCell>
        <mxCell id="BfKTVqbURA2rW4PKzyzV-9" value="" style="endArrow=classic;html=1;rounded=0;exitX=1;exitY=1;exitDx=0;exitDy=0;entryX=0.5;entryY=0;entryDx=0;entryDy=0;" edge="1" parent="WIyWlLk6GJQsqaUBKTNV-1" source="BfKTVqbURA2rW4PKzyzV-0" target="BfKTVqbURA2rW4PKzyzV-5">
          <mxGeometry width="50" height="50" relative="1" as="geometry">
            <mxPoint x="390" y="260" as="sourcePoint" />
            <mxPoint x="150" y="150" as="targetPoint" />
            <Array as="points">
              <mxPoint x="150" y="110" />
              <mxPoint x="285" y="110" />
            </Array>
          </mxGeometry>
        </mxCell>
        <mxCell id="BfKTVqbURA2rW4PKzyzV-10" value="" style="endArrow=classic;html=1;rounded=0;entryX=0.5;entryY=1;entryDx=0;entryDy=0;exitX=1;exitY=0;exitDx=0;exitDy=0;" edge="1" parent="WIyWlLk6GJQsqaUBKTNV-1" source="BfKTVqbURA2rW4PKzyzV-5" target="BfKTVqbURA2rW4PKzyzV-3">
          <mxGeometry width="50" height="50" relative="1" as="geometry">
            <mxPoint x="330" y="180" as="sourcePoint" />
            <mxPoint x="440" y="210" as="targetPoint" />
            <Array as="points">
              <mxPoint x="325" y="160" />
            </Array>
          </mxGeometry>
        </mxCell>
        <mxCell id="BfKTVqbURA2rW4PKzyzV-11" value="" style="endArrow=classic;html=1;rounded=0;exitX=0.989;exitY=0.422;exitDx=0;exitDy=0;exitPerimeter=0;entryX=0.5;entryY=1;entryDx=0;entryDy=0;" edge="1" parent="WIyWlLk6GJQsqaUBKTNV-1" source="BfKTVqbURA2rW4PKzyzV-5" target="BfKTVqbURA2rW4PKzyzV-4">
          <mxGeometry width="50" height="50" relative="1" as="geometry">
            <mxPoint x="389" y="225" as="sourcePoint" />
            <mxPoint x="439" y="175" as="targetPoint" />
            <Array as="points">
              <mxPoint x="555" y="198" />
            </Array>
          </mxGeometry>
        </mxCell>
        <mxCell id="BfKTVqbURA2rW4PKzyzV-12" value="Extras/Rebates" style="text;html=1;align=center;verticalAlign=middle;resizable=0;points=[];autosize=1;strokeColor=none;fillColor=none;" vertex="1" parent="WIyWlLk6GJQsqaUBKTNV-1">
          <mxGeometry x="110" y="200" width="90" height="20" as="geometry" />
        </mxCell>
        <mxCell id="BfKTVqbURA2rW4PKzyzV-14" value="Expenses" style="shape=partialRectangle;whiteSpace=wrap;html=1;left=0;right=0;fillColor=none;" vertex="1" parent="WIyWlLk6GJQsqaUBKTNV-1">
          <mxGeometry x="70" y="290" width="120" height="30" as="geometry" />
        </mxCell>
        <mxCell id="BfKTVqbURA2rW4PKzyzV-15" value="Student billing information + bills" style="shape=partialRectangle;whiteSpace=wrap;html=1;left=0;right=0;fillColor=none;" vertex="1" parent="WIyWlLk6GJQsqaUBKTNV-1">
          <mxGeometry x="390" y="260" width="120" height="30" as="geometry" />
        </mxCell>
        <mxCell id="BfKTVqbURA2rW4PKzyzV-16" value="" style="endArrow=classic;startArrow=classic;html=1;rounded=0;exitX=1;exitY=1;exitDx=0;exitDy=0;entryX=0.5;entryY=0;entryDx=0;entryDy=0;" edge="1" parent="WIyWlLk6GJQsqaUBKTNV-1" source="BfKTVqbURA2rW4PKzyzV-5" target="BfKTVqbURA2rW4PKzyzV-15">
          <mxGeometry width="50" height="50" relative="1" as="geometry">
            <mxPoint x="260" y="390" as="sourcePoint" />
            <mxPoint x="480" y="230" as="targetPoint" />
            <Array as="points">
              <mxPoint x="450" y="237" />
            </Array>
          </mxGeometry>
        </mxCell>
        <mxCell id="BfKTVqbURA2rW4PKzyzV-17" value="" style="endArrow=classic;startArrow=classic;html=1;rounded=0;entryX=0;entryY=1;entryDx=0;entryDy=0;exitX=0.75;exitY=0;exitDx=0;exitDy=0;" edge="1" parent="WIyWlLk6GJQsqaUBKTNV-1" source="BfKTVqbURA2rW4PKzyzV-14" target="BfKTVqbURA2rW4PKzyzV-5">
          <mxGeometry width="50" height="50" relative="1" as="geometry">
            <mxPoint x="390" y="260" as="sourcePoint" />
            <mxPoint x="440" y="210" as="targetPoint" />
            <Array as="points">
              <mxPoint x="190" y="260" />
            </Array>
          </mxGeometry>
        </mxCell>
        <mxCell id="BfKTVqbURA2rW4PKzyzV-18" value="" style="ellipse;whiteSpace=wrap;html=1;aspect=fixed;" vertex="1" parent="WIyWlLk6GJQsqaUBKTNV-1">
          <mxGeometry x="240" y="360" width="90" height="90" as="geometry" />
        </mxCell>
        <mxCell id="BfKTVqbURA2rW4PKzyzV-19" value="Payments" style="text;html=1;align=center;verticalAlign=middle;resizable=0;points=[];autosize=1;strokeColor=none;fillColor=none;" vertex="1" parent="WIyWlLk6GJQsqaUBKTNV-1">
          <mxGeometry x="150" y="90" width="60" height="20" as="geometry" />
        </mxCell>
        <mxCell id="BfKTVqbURA2rW4PKzyzV-20" value="Itemized bills &lt;br&gt;at month end" style="text;html=1;align=center;verticalAlign=middle;resizable=0;points=[];autosize=1;strokeColor=none;fillColor=none;" vertex="1" parent="WIyWlLk6GJQsqaUBKTNV-1">
          <mxGeometry x="140" y="140" width="80" height="30" as="geometry" />
        </mxCell>
        <mxCell id="BfKTVqbURA2rW4PKzyzV-21" value="Updated &lt;br&gt;daily rate" style="text;html=1;align=center;verticalAlign=middle;resizable=0;points=[];autosize=1;strokeColor=none;fillColor=none;" vertex="1" parent="WIyWlLk6GJQsqaUBKTNV-1">
          <mxGeometry x="330" y="90" width="60" height="30" as="geometry" />
        </mxCell>
        <mxCell id="BfKTVqbURA2rW4PKzyzV-22" value="Unpaid &lt;br&gt;bills" style="text;html=1;align=center;verticalAlign=middle;resizable=0;points=[];autosize=1;strokeColor=none;fillColor=none;" vertex="1" parent="WIyWlLk6GJQsqaUBKTNV-1">
          <mxGeometry x="560" y="100" width="50" height="30" as="geometry" />
        </mxCell>
        <mxCell id="BfKTVqbURA2rW4PKzyzV-23" value="Vendors" style="rounded=0;whiteSpace=wrap;html=1;fontStyle=1" vertex="1" parent="WIyWlLk6GJQsqaUBKTNV-1">
          <mxGeometry x="50" y="380" width="110" height="50" as="geometry" />
        </mxCell>
        <mxCell id="BfKTVqbURA2rW4PKzyzV-24" value="Mess Manager" style="rounded=0;whiteSpace=wrap;html=1;fontStyle=1" vertex="1" parent="WIyWlLk6GJQsqaUBKTNV-1">
          <mxGeometry x="500" y="410" width="110" height="50" as="geometry" />
        </mxCell>
        <mxCell id="BfKTVqbURA2rW4PKzyzV-25" value="Mess Secretary" style="rounded=0;whiteSpace=wrap;html=1;fontStyle=1" vertex="1" parent="WIyWlLk6GJQsqaUBKTNV-1">
          <mxGeometry x="500" y="510" width="110" height="50" as="geometry" />
        </mxCell>
        <mxCell id="BfKTVqbURA2rW4PKzyzV-26" value="" style="ellipse;whiteSpace=wrap;html=1;aspect=fixed;" vertex="1" parent="WIyWlLk6GJQsqaUBKTNV-1">
          <mxGeometry x="240" y="540" width="90" height="90" as="geometry" />
        </mxCell>
      </root>
    </mxGraphModel>
  </diagram>
</mxfile>
